<svg xmlns="http://www.w3.org/2000/svg" xmlns:xlink="http://www.w3.org/1999/xlink" width="500" zoomAndPan="magnify" viewBox="0 0 375 374.999991" height="500" preserveAspectRatio="xMidYMid meet" version="1.0"><defs><g/><clipPath id="2fdb9c47a9"><path d="M 66 98 L 310 98 L 310 322.316406 L 66 322.316406 Z M 66 98 " clip-rule="nonzero"/></clipPath><clipPath id="9dc848187a"><path d="M 227.226562 169 L 305.226562 169 L 305.226562 240.570312 L 227.226562 240.570312 Z M 227.226562 169 " clip-rule="nonzero"/></clipPath><clipPath id="b24ceb1793"><path d="M 64 115 L 184 115 L 184 189 L 64 189 Z M 64 115 " clip-rule="nonzero"/></clipPath><clipPath id="87b4a129fa"><path d="M 159.363281 206.648438 L 63.28125 179.851562 L 88.265625 90.269531 L 184.347656 117.070312 Z M 159.363281 206.648438 " clip-rule="nonzero"/></clipPath><clipPath id="8af44ffdf4"><path d="M 159.363281 206.648438 L 63.28125 179.851562 L 88.265625 90.269531 L 184.347656 117.070312 Z M 159.363281 206.648438 " clip-rule="nonzero"/></clipPath></defs><g clip-path="url(#2fdb9c47a9)"><path fill="#16175d" d="M 309.054688 210.046875 L 293.558594 120.757812 C 290.984375 105.925781 278.546875 96.054688 265.394531 98.402344 L 87.859375 130.023438 C 74.300781 132.441406 65.050781 146.929688 67.226562 162.28125 L 74.113281 211.054688 C 75.976562 224.261719 85.773438 234.152344 97.558594 234.714844 L 177.527344 238.53125 C 177.792969 238.542969 178.046875 238.597656 178.292969 238.695312 C 178.539062 238.789062 178.765625 238.921875 178.96875 239.089844 C 179.171875 239.261719 179.34375 239.457031 179.480469 239.683594 C 179.621094 239.90625 179.71875 240.148438 179.78125 240.40625 C 180.269531 242.246094 180.464844 244.113281 180.375 246.015625 C 180.28125 247.914062 179.902344 249.757812 179.234375 251.539062 C 176.933594 257.328125 171.40625 261.210938 165.734375 263.796875 C 160.066406 266.382812 153.957031 268.03125 148.582031 271.179688 C 147.515625 271.800781 146.484375 272.480469 145.492188 273.214844 C 144.496094 273.945312 143.542969 274.730469 142.632812 275.5625 C 141.71875 276.398438 140.855469 277.277344 140.035156 278.203125 C 139.21875 279.128906 138.453125 280.09375 137.734375 281.101562 C 137.019531 282.105469 136.359375 283.148438 135.753906 284.226562 C 135.148438 285.300781 134.601562 286.40625 134.113281 287.542969 C 133.625 288.675781 133.199219 289.835938 132.832031 291.015625 C 132.46875 292.195312 132.164062 293.390625 131.925781 294.601562 C 131.6875 295.8125 131.515625 297.035156 131.40625 298.265625 C 131.296875 299.496094 131.25 300.730469 131.273438 301.964844 C 131.292969 303.199219 131.382812 304.429688 131.535156 305.65625 C 131.683594 306.882812 131.902344 308.09375 132.183594 309.296875 C 132.464844 310.5 132.804688 311.6875 133.210938 312.851562 C 133.617188 314.019531 134.085938 315.160156 134.613281 316.277344 C 135.140625 317.394531 135.726562 318.480469 136.367188 319.535156 C 137.011719 320.589844 137.707031 321.609375 138.457031 322.589844 C 133.074219 311.859375 139.917969 298.359375 149.945312 291.761719 C 159.972656 285.164062 172.300781 283.464844 184.019531 280.804688 C 195.734375 278.140625 208.007812 273.773438 214.882812 263.9375 C 219.34375 257.558594 220.953125 249.511719 220.496094 241.730469 C 220.464844 241.5 220.519531 241.292969 220.660156 241.109375 C 220.800781 240.925781 220.984375 240.816406 221.214844 240.785156 C 221.289062 240.777344 221.367188 240.777344 221.445312 240.785156 C 229.566406 241.113281 283.679688 243.605469 283.679688 243.605469 C 299.71875 244.371094 312.15625 227.914062 309.054688 210.046875 Z M 309.054688 210.046875 " fill-opacity="1" fill-rule="nonzero"/></g><path fill="#ff975d" d="M 293.640625 96.464844 C 293.296875 96.660156 292.929688 96.804688 292.542969 96.894531 C 292.160156 96.984375 291.769531 97.019531 291.371094 96.996094 C 290.976562 96.972656 290.59375 96.894531 290.21875 96.757812 C 289.847656 96.621094 289.5 96.4375 289.183594 96.203125 C 288.863281 95.96875 288.585938 95.691406 288.34375 95.375 C 288.105469 95.058594 287.917969 94.714844 287.777344 94.34375 C 287.640625 93.972656 287.554688 93.589844 287.527344 93.195312 C 287.5 92.800781 287.527344 92.410156 287.613281 92.019531 C 290.773438 77.949219 298.613281 52.386719 312.214844 64.097656 C 325.636719 75.625 305.5 89.699219 293.640625 96.464844 Z M 279.289062 89.328125 C 279.144531 89.921875 278.851562 90.425781 278.410156 90.847656 C 277.964844 91.265625 277.441406 91.527344 276.839844 91.636719 C 276.238281 91.742188 275.660156 91.679688 275.097656 91.4375 C 274.535156 91.199219 274.082031 90.828125 273.742188 90.320312 C 267.839844 81.496094 258.378906 64.605469 271.40625 63.292969 C 284.195312 61.984375 281.667969 79.566406 279.289062 89.328125 Z M 302.570312 109.421875 C 302.050781 109.242188 301.566406 108.992188 301.125 108.667969 C 300.679688 108.34375 300.296875 107.960938 299.96875 107.515625 C 299.644531 107.074219 299.394531 106.589844 299.21875 106.070312 C 299.042969 105.546875 298.949219 105.011719 298.9375 104.464844 C 298.925781 103.914062 298.996094 103.375 299.152344 102.847656 C 299.304688 102.320312 299.535156 101.828125 299.84375 101.371094 C 300.152344 100.914062 300.519531 100.515625 300.949219 100.171875 C 301.378906 99.828125 301.851562 99.558594 302.363281 99.359375 C 312.144531 95.605469 324.652344 92.859375 323.972656 103.722656 C 323.3125 114.285156 311.792969 112.554688 302.570312 109.421875 Z M 79.113281 239.984375 C 79.246094 239.417969 79.214844 238.859375 79.019531 238.308594 C 78.824219 237.757812 78.496094 237.304688 78.03125 236.949219 C 77.570312 236.59375 77.046875 236.390625 76.464844 236.339844 C 75.882812 236.292969 75.335938 236.40625 74.820312 236.679688 C 65.59375 241.644531 49.277344 252.183594 60.152344 259.378906 C 70.867188 266.460938 76.722656 249.613281 79.113281 239.984375 Z M 71.28125 231.363281 C 71.667969 231.148438 71.964844 230.84375 72.167969 230.449219 C 72.371094 230.054688 72.453125 229.636719 72.410156 229.195312 C 72.367188 228.753906 72.207031 228.363281 71.925781 228.015625 C 71.648438 227.671875 71.300781 227.429688 70.878906 227.292969 C 63.546875 224.910156 49.859375 221.632812 51.511719 231 C 53.136719 240.21875 64.925781 234.957031 71.28125 231.363281 Z M 89.941406 243.664062 C 89.714844 243.335938 89.445312 243.042969 89.128906 242.796875 C 88.8125 242.546875 88.46875 242.351562 88.09375 242.210938 C 87.714844 242.070312 87.328125 241.988281 86.929688 241.96875 C 86.527344 241.949219 86.132812 241.988281 85.746094 242.089844 C 85.355469 242.191406 84.992188 242.347656 84.652344 242.5625 C 84.3125 242.777344 84.015625 243.035156 83.753906 243.34375 C 83.496094 243.648438 83.289062 243.988281 83.136719 244.359375 C 82.980469 244.730469 82.886719 245.113281 82.851562 245.515625 C 82.160156 253.097656 82.714844 262.382812 90.1875 259.757812 C 97.441406 257.210938 93.953125 249.496094 89.941406 243.664062 Z M 89.941406 243.664062 " fill-opacity="1" fill-rule="nonzero"/><g clip-path="url(#9dc848187a)"><path fill="#ff975d" d="M 280.007812 170.28125 C 279.175781 170.257812 278.378906 170.269531 277.601562 170.316406 C 276.714844 170.320312 275.824219 170.324219 274.9375 170.328125 C 275.667969 170.296875 276.421875 170.296875 277.199219 170.332031 C 278.136719 170.316406 279.070312 170.300781 280.007812 170.28125 Z M 297.171875 169.96875 C 290.257812 170.183594 284.867188 172.363281 280.433594 175.796875 C 276.605469 175.097656 272.777344 174.394531 268.945312 173.695312 C 272.398438 171.457031 276.554688 170.132812 281.824219 170.25 C 286.9375 170.15625 292.054688 170.0625 297.171875 169.96875 Z M 301.792969 169.882812 C 300.582031 169.933594 299.414062 170.042969 298.289062 170.203125 C 297.402344 170.210938 296.511719 170.214844 295.625 170.21875 C 296.703125 170.070312 297.824219 169.976562 298.988281 169.933594 C 299.921875 169.917969 300.855469 169.902344 301.792969 169.882812 Z M 295.964844 170.625 C 294.898438 170.859375 293.867188 171.148438 292.875 171.480469 C 292.058594 171.453125 291.242188 171.425781 290.425781 171.398438 C 291.378906 171.085938 292.367188 170.820312 293.394531 170.605469 C 294.25 170.613281 295.109375 170.617188 295.964844 170.625 Z M 290.824219 172.257812 C 289.882812 172.65625 288.976562 173.105469 288.101562 173.589844 C 287.347656 173.519531 286.59375 173.445312 285.839844 173.375 C 286.679688 172.917969 287.554688 172.5 288.460938 172.125 C 289.25 172.167969 290.035156 172.214844 290.824219 172.257812 Z M 286.296875 174.679688 C 285.464844 175.226562 284.667969 175.808594 283.894531 176.429688 C 283.191406 176.300781 282.496094 176.171875 281.792969 176.042969 C 282.539062 175.460938 283.308594 174.910156 284.105469 174.398438 C 284.835938 174.492188 285.566406 174.589844 286.296875 174.679688 Z M 266.460938 174.207031 C 265.9375 174.582031 265.433594 174.980469 264.945312 175.394531 C 264.292969 175.203125 263.640625 175.007812 262.984375 174.816406 C 263.449219 174.441406 263.925781 174.082031 264.417969 173.746094 C 265.097656 173.902344 265.78125 174.054688 266.460938 174.207031 Z M 278.9375 177.03125 C 274.726562 180.742188 271.410156 185.613281 268.4375 190.929688 C 265.445312 188.574219 262.457031 186.214844 259.464844 183.855469 C 261.851562 180.238281 264.484375 176.949219 267.78125 174.507812 C 271.5 175.347656 275.21875 176.191406 278.9375 177.03125 Z M 282.300781 177.792969 C 281.566406 178.460938 280.855469 179.164062 280.171875 179.898438 C 279.519531 179.703125 278.867188 179.511719 278.210938 179.316406 C 278.871094 178.625 279.554688 177.960938 280.261719 177.332031 C 280.9375 177.484375 281.621094 177.636719 282.300781 177.792969 Z M 278.753906 181.492188 C 278.101562 182.265625 277.472656 183.066406 276.855469 183.890625 C 276.246094 183.625 275.628906 183.359375 275.015625 183.089844 C 275.609375 182.3125 276.214844 181.554688 276.847656 180.824219 C 277.484375 181.046875 278.117188 181.269531 278.753906 181.492188 Z M 275.585938 185.675781 C 275 186.53125 274.429688 187.414062 273.871094 188.3125 C 273.292969 187.96875 272.714844 187.621094 272.136719 187.273438 C 272.675781 186.421875 273.226562 185.589844 273.792969 184.777344 C 274.390625 185.078125 274.988281 185.375 275.585938 185.675781 Z M 272.714844 190.242188 C 272.179688 191.164062 271.652344 192.105469 271.136719 193.058594 C 270.589844 192.628906 270.042969 192.195312 269.496094 191.765625 C 269.996094 190.863281 270.503906 189.972656 271.019531 189.101562 C 271.585938 189.480469 272.152344 189.863281 272.714844 190.242188 Z M 257.613281 184.214844 C 257.242188 184.785156 256.875 185.359375 256.515625 185.941406 C 255.996094 185.421875 255.480469 184.902344 254.960938 184.382812 C 255.304688 183.855469 255.65625 183.332031 256.007812 182.8125 C 256.542969 183.28125 257.078125 183.75 257.613281 184.214844 Z M 267.421875 192.785156 C 264.519531 198.195312 261.894531 203.964844 258.996094 209.371094 C 256.613281 205.0625 254.234375 200.75 251.855469 196.441406 C 254.1875 192.753906 256.316406 188.804688 258.648438 185.121094 C 261.574219 187.675781 264.496094 190.230469 267.421875 192.785156 Z M 270.0625 195.09375 C 269.558594 196.0625 269.066406 197.042969 268.574219 198.027344 C 268.058594 197.511719 267.542969 196.992188 267.023438 196.472656 C 267.496094 195.539062 267.972656 194.609375 268.460938 193.691406 C 268.992188 194.160156 269.527344 194.625 270.0625 195.09375 Z M 267.550781 200.125 C 267.066406 201.121094 266.585938 202.121094 266.109375 203.121094 C 265.617188 202.511719 265.128906 201.902344 264.636719 201.292969 C 265.097656 200.347656 265.5625 199.402344 266.03125 198.457031 C 266.535156 199.015625 267.042969 199.570312 267.550781 200.125 Z M 265.097656 205.238281 C 264.617188 206.242188 264.140625 207.238281 263.660156 208.234375 C 263.195312 207.535156 262.730469 206.835938 262.269531 206.136719 C 262.734375 205.195312 263.199219 204.246094 263.660156 203.300781 C 264.140625 203.945312 264.617188 204.589844 265.097656 205.238281 Z M 262.628906 210.332031 C 262.144531 211.316406 261.648438 212.296875 261.144531 213.265625 C 260.710938 212.480469 260.277344 211.691406 259.839844 210.902344 C 260.324219 209.984375 260.804688 209.058594 261.277344 208.121094 C 261.726562 208.859375 262.179688 209.59375 262.628906 210.332031 Z M 250.214844 196.101562 C 249.835938 196.660156 249.453125 197.214844 249.058594 197.75 C 248.65625 196.878906 248.25 196.003906 247.84375 195.128906 C 248.21875 194.636719 248.585938 194.140625 248.949219 193.632812 C 249.371094 194.453125 249.792969 195.28125 250.214844 196.101562 Z M 257.980469 211.230469 C 255.007812 216.542969 251.691406 221.417969 247.476562 225.125 C 245.890625 219.101562 244.308594 213.078125 242.722656 207.054688 C 246.015625 204.613281 248.652344 201.320312 251.039062 197.703125 C 253.351562 202.210938 255.667969 206.71875 257.980469 211.230469 Z M 260.070312 215.300781 C 259.554688 216.253906 259.03125 217.195312 258.492188 218.117188 C 258.085938 217.242188 257.683594 216.367188 257.277344 215.496094 C 257.796875 214.621094 258.300781 213.730469 258.800781 212.828125 C 259.222656 213.652344 259.644531 214.476562 260.070312 215.300781 Z M 257.335938 220.046875 C 256.777344 220.945312 256.207031 221.828125 255.621094 222.683594 C 255.25 221.730469 254.875 220.773438 254.507812 219.816406 C 255.074219 219.003906 255.621094 218.171875 256.160156 217.320312 C 256.550781 218.230469 256.945312 219.136719 257.335938 220.046875 Z M 254.351562 224.46875 C 253.738281 225.292969 253.105469 226.09375 252.449219 226.867188 C 252.117188 225.835938 251.785156 224.804688 251.449219 223.773438 C 252.082031 223.042969 252.691406 222.285156 253.28125 221.503906 C 253.636719 222.492188 253.992188 223.480469 254.351562 224.46875 Z M 251.035156 228.464844 C 250.351562 229.195312 249.640625 229.898438 248.90625 230.566406 C 248.617188 229.464844 248.328125 228.363281 248.039062 227.261719 C 248.746094 226.632812 249.429688 225.96875 250.085938 225.277344 C 250.402344 226.339844 250.71875 227.402344 251.035156 228.464844 Z M 241.035156 205.675781 C 240.488281 206.019531 239.921875 206.339844 239.339844 206.632812 C 239.101562 205.46875 238.863281 204.308594 238.625 203.148438 C 239.175781 202.886719 239.707031 202.601562 240.226562 202.292969 C 240.492188 203.421875 240.765625 204.546875 241.035156 205.675781 Z M 245.980469 226.363281 C 241.550781 229.792969 236.160156 231.976562 229.242188 232.191406 C 229.054688 225.230469 228.867188 218.273438 228.679688 211.3125 C 233.949219 211.425781 238.105469 210.101562 241.554688 207.863281 C 243.03125 214.03125 244.507812 220.195312 245.980469 226.363281 Z M 247.3125 231.929688 C 246.542969 232.550781 245.738281 233.136719 244.910156 233.679688 C 244.671875 232.519531 244.433594 231.355469 244.191406 230.195312 C 244.992188 229.683594 245.761719 229.132812 246.503906 228.550781 C 246.773438 229.675781 247.042969 230.804688 247.3125 231.929688 Z M 243.105469 234.769531 C 242.230469 235.257812 241.324219 235.703125 240.382812 236.101562 C 240.199219 234.890625 240.019531 233.679688 239.839844 232.46875 C 240.742188 232.097656 241.617188 231.679688 242.457031 231.222656 C 242.675781 232.40625 242.890625 233.585938 243.105469 234.769531 Z M 238.332031 236.878906 C 237.339844 237.214844 236.3125 237.5 235.242188 237.734375 C 235.128906 236.488281 235.015625 235.238281 234.90625 233.992188 C 235.929688 233.773438 236.917969 233.507812 237.871094 233.195312 C 238.027344 234.421875 238.179688 235.652344 238.332031 236.878906 Z M 232.917969 238.15625 C 231.792969 238.316406 230.625 238.425781 229.414062 238.476562 C 229.378906 237.203125 229.347656 235.933594 229.3125 234.660156 C 230.472656 234.621094 231.59375 234.523438 232.671875 234.375 C 232.753906 235.636719 232.835938 236.894531 232.917969 238.15625 Z M 228.511719 205.027344 C 229.289062 205.0625 230.042969 205.0625 230.773438 205.03125 C 230.855469 206.289062 230.9375 207.550781 231.019531 208.808594 C 230.242188 208.855469 229.445312 208.867188 228.613281 208.84375 C 228.582031 207.570312 228.546875 206.296875 228.511719 205.027344 Z M 232.28125 204.917969 C 232.976562 204.839844 233.644531 204.734375 234.296875 204.597656 C 234.449219 205.828125 234.601562 207.054688 234.753906 208.28125 C 234.066406 208.4375 233.355469 208.566406 232.617188 208.660156 C 232.503906 207.414062 232.390625 206.164062 232.28125 204.917969 Z M 235.636719 204.269531 C 236.253906 204.097656 236.851562 203.894531 237.429688 203.667969 C 237.644531 204.851562 237.859375 206.03125 238.078125 207.214844 C 237.464844 207.472656 236.832031 207.703125 236.175781 207.902344 C 235.996094 206.691406 235.816406 205.480469 235.636719 204.269531 Z M 241.292969 201.613281 C 241.785156 201.277344 242.261719 200.921875 242.726562 200.546875 C 243.042969 201.605469 243.359375 202.667969 243.671875 203.730469 C 243.183594 204.144531 242.679688 204.542969 242.160156 204.917969 C 241.871094 203.816406 241.582031 202.714844 241.292969 201.613281 Z M 243.6875 199.722656 C 244.128906 199.324219 244.5625 198.90625 244.980469 198.476562 C 245.339844 199.464844 245.695312 200.453125 246.050781 201.441406 C 245.609375 201.917969 245.15625 202.378906 244.6875 202.820312 C 244.351562 201.789062 244.019531 200.757812 243.6875 199.722656 Z M 245.855469 197.542969 C 246.257812 197.089844 246.65625 196.625 247.039062 196.152344 C 247.433594 197.0625 247.824219 197.96875 248.214844 198.878906 C 247.808594 199.402344 247.394531 199.914062 246.96875 200.410156 C 246.597656 199.457031 246.226562 198.5 245.855469 197.542969 Z M 249.703125 192.546875 C 250.058594 192.027344 250.40625 191.503906 250.75 190.976562 C 251.203125 191.710938 251.65625 192.449219 252.105469 193.183594 C 251.746094 193.765625 251.378906 194.339844 251.007812 194.910156 C 250.574219 194.121094 250.136719 193.335938 249.703125 192.546875 Z M 251.476562 189.851562 C 251.820312 189.320312 252.160156 188.78125 252.496094 188.246094 C 252.976562 188.894531 253.457031 189.539062 253.933594 190.1875 C 253.582031 190.777344 253.222656 191.363281 252.867188 191.949219 C 252.402344 191.25 251.941406 190.550781 251.476562 189.851562 Z M 253.214844 187.109375 C 253.554688 186.574219 253.894531 186.039062 254.234375 185.503906 C 254.738281 186.0625 255.246094 186.617188 255.753906 187.175781 C 255.394531 187.761719 255.039062 188.347656 254.6875 188.9375 C 254.195312 188.328125 253.703125 187.722656 253.214844 187.109375 Z M 256.761719 181.730469 C 257.125 181.222656 257.492188 180.71875 257.863281 180.230469 C 258.429688 180.609375 258.996094 180.992188 259.558594 181.371094 C 259.167969 181.914062 258.78125 182.460938 258.40625 183.019531 C 257.855469 182.589844 257.308594 182.160156 256.761719 181.730469 Z M 258.671875 179.207031 C 259.058594 178.730469 259.453125 178.269531 259.855469 177.816406 C 260.457031 178.117188 261.054688 178.414062 261.652344 178.714844 C 261.226562 179.210938 260.808594 179.722656 260.40625 180.246094 C 259.828125 179.898438 259.25 179.554688 258.671875 179.207031 Z M 260.730469 176.882812 C 261.152344 176.453125 261.582031 176.035156 262.023438 175.632812 C 262.660156 175.859375 263.296875 176.082031 263.933594 176.304688 C 263.464844 176.746094 263.011719 177.207031 262.570312 177.683594 C 261.957031 177.417969 261.34375 177.148438 260.730469 176.882812 Z M 265.488281 173.0625 C 266.003906 172.757812 266.535156 172.472656 267.085938 172.210938 C 267.816406 172.304688 268.550781 172.398438 269.28125 172.492188 C 268.699219 172.785156 268.132812 173.105469 267.589844 173.449219 C 266.886719 173.320312 266.1875 173.191406 265.488281 173.0625 Z M 268.28125 171.691406 C 268.859375 171.464844 269.457031 171.265625 270.074219 171.089844 C 270.867188 171.132812 271.652344 171.179688 272.441406 171.222656 C 271.789062 171.421875 271.15625 171.652344 270.546875 171.910156 C 269.789062 171.835938 269.035156 171.765625 268.28125 171.691406 Z M 271.417969 170.761719 C 272.066406 170.625 272.738281 170.519531 273.429688 170.441406 C 274.289062 170.449219 275.144531 170.457031 276.003906 170.464844 C 275.265625 170.558594 274.554688 170.683594 273.867188 170.84375 C 273.046875 170.816406 272.234375 170.789062 271.417969 170.761719 Z M 227.230469 202.800781 C 227.308594 215.417969 227.386719 228.035156 227.460938 240.652344 C 271.832031 240.851562 261.003906 169.613281 305.371094 169.8125 C 295.863281 170.027344 286.359375 170.242188 276.851562 170.453125 C 249.964844 167.839844 254.121094 205.414062 227.230469 202.800781 " fill-opacity="1" fill-rule="nonzero"/></g><g clip-path="url(#b24ceb1793)"><g clip-path="url(#87b4a129fa)"><g clip-path="url(#8af44ffdf4)"><path fill="#ff975d" d="M 95.503906 185.585938 C 96.511719 185.898438 97.5 186.160156 98.464844 186.367188 C 99.554688 186.664062 100.644531 186.964844 101.734375 187.261719 C 100.832031 187.050781 99.90625 186.792969 98.964844 186.480469 C 97.808594 186.183594 96.65625 185.882812 95.503906 185.585938 Z M 74.359375 180.105469 C 82.90625 182.203125 90.261719 181.371094 96.867188 178.679688 C 101.320312 180.847656 105.777344 183.015625 110.230469 185.179688 C 105.234375 186.746094 99.6875 186.949219 93.269531 185.003906 C 86.964844 183.371094 80.664062 181.738281 74.359375 180.105469 Z M 68.664062 178.628906 C 70.164062 178.980469 71.632812 179.242188 73.070312 179.429688 C 74.160156 179.730469 75.25 180.027344 76.339844 180.324219 C 74.964844 180.136719 73.5625 179.867188 72.121094 179.523438 C 70.96875 179.222656 69.816406 178.925781 68.664062 178.628906 Z M 76.058594 179.707031 C 77.453125 179.785156 78.8125 179.789062 80.140625 179.714844 C 81.132812 180.027344 82.125 180.34375 83.117188 180.652344 C 81.839844 180.710938 80.535156 180.699219 79.207031 180.613281 C 78.15625 180.3125 77.109375 180.011719 76.058594 179.707031 Z M 82.917969 179.464844 C 84.210938 179.296875 85.472656 179.058594 86.714844 178.761719 C 87.609375 179.109375 88.511719 179.453125 89.414062 179.800781 C 88.226562 180.074219 87.011719 180.289062 85.773438 180.4375 C 84.824219 180.113281 83.871094 179.789062 82.917969 179.464844 Z M 89.296875 178.042969 C 90.503906 177.660156 91.683594 177.214844 92.839844 176.722656 C 93.660156 177.117188 94.46875 177.515625 95.285156 177.910156 C 94.175781 178.371094 93.042969 178.78125 91.886719 179.136719 C 91.027344 178.773438 90.160156 178.40625 89.296875 178.042969 Z M 113.453125 185.40625 C 114.21875 185.125 114.972656 184.808594 115.714844 184.46875 C 116.449219 184.929688 117.183594 185.390625 117.917969 185.847656 C 117.226562 186.148438 116.515625 186.421875 115.796875 186.667969 C 115.015625 186.246094 114.234375 185.824219 113.453125 185.40625 Z M 99.121094 177.675781 C 105.554688 174.570312 111.285156 169.730469 116.75 164.234375 C 119.609375 168.144531 122.46875 172.054688 125.328125 175.96875 C 121.167969 179.585938 116.8125 182.722656 111.9375 184.585938 C 107.667969 182.285156 103.394531 179.980469 99.121094 177.675781 Z M 95.261719 175.597656 C 96.390625 175.027344 97.5 174.410156 98.589844 173.742188 C 99.324219 174.203125 100.058594 174.664062 100.796875 175.125 C 99.75 175.75 98.6875 176.328125 97.605469 176.859375 C 96.824219 176.4375 96.042969 176.015625 95.261719 175.597656 Z M 100.871094 172.273438 C 101.9375 171.550781 102.984375 170.78125 104.019531 169.980469 C 104.679688 170.515625 105.339844 171.054688 106.003906 171.589844 C 105.011719 172.34375 104.003906 173.0625 102.984375 173.746094 C 102.277344 173.253906 101.578125 172.765625 100.871094 172.273438 Z M 106.1875 168.230469 C 107.199219 167.378906 108.199219 166.492188 109.191406 165.582031 C 109.78125 166.203125 110.371094 166.824219 110.960938 167.445312 C 110.011719 168.304688 109.050781 169.136719 108.082031 169.941406 C 107.449219 169.371094 106.816406 168.800781 106.1875 168.230469 Z M 111.265625 163.609375 C 112.242188 162.664062 113.207031 161.691406 114.164062 160.699219 C 114.6875 161.414062 115.210938 162.128906 115.734375 162.84375 C 114.8125 163.777344 113.886719 164.695312 112.953125 165.589844 C 112.390625 164.929688 111.832031 164.269531 111.265625 163.609375 Z M 127.722656 176.164062 C 128.367188 175.589844 129.015625 175.011719 129.65625 174.425781 C 130.117188 175.238281 130.570312 176.050781 131.03125 176.863281 C 130.425781 177.394531 129.820312 177.917969 129.210938 178.429688 C 128.710938 177.671875 128.21875 176.917969 127.722656 176.164062 Z M 118.628906 162.304688 C 124.035156 156.664062 129.222656 150.488281 134.628906 144.851562 C 136.070312 150.949219 137.511719 157.046875 138.957031 163.144531 C 134.835938 166.863281 130.878906 170.976562 126.761719 174.699219 C 124.050781 170.566406 121.339844 166.433594 118.628906 162.304688 Z M 116.179688 158.570312 C 117.128906 157.554688 118.066406 156.523438 119.003906 155.480469 C 119.460938 156.292969 119.917969 157.105469 120.375 157.921875 C 119.476562 158.90625 118.574219 159.878906 117.664062 160.835938 C 117.171875 160.082031 116.675781 159.328125 116.179688 158.570312 Z M 120.980469 153.261719 C 121.914062 152.207031 122.839844 151.148438 123.769531 150.082031 C 124.160156 150.996094 124.558594 151.910156 124.949219 152.824219 C 124.058594 153.828125 123.167969 154.828125 122.273438 155.824219 C 121.839844 154.96875 121.410156 154.117188 120.980469 153.261719 Z M 125.734375 147.832031 C 126.664062 146.769531 127.589844 145.707031 128.519531 144.652344 C 128.851562 145.667969 129.179688 146.683594 129.507812 147.699219 C 128.613281 148.695312 127.722656 149.695312 126.832031 150.699219 C 126.464844 149.742188 126.101562 148.789062 125.734375 147.832031 Z M 130.5 142.433594 C 131.433594 141.390625 132.375 140.359375 133.320312 139.34375 C 133.585938 140.457031 133.851562 141.570312 134.113281 142.6875 C 133.207031 143.648438 132.300781 144.621094 131.402344 145.605469 C 131.101562 144.546875 130.796875 143.492188 130.5 142.433594 Z M 140.851562 164.117188 C 141.507812 163.5625 142.167969 163.019531 142.835938 162.492188 C 143.03125 163.703125 143.226562 164.914062 143.425781 166.121094 C 142.796875 166.597656 142.179688 167.082031 141.5625 167.582031 C 141.324219 166.429688 141.085938 165.273438 140.851562 164.117188 Z M 136.507812 142.921875 C 141.96875 137.421875 147.699219 132.582031 154.132812 129.476562 C 154.015625 137.402344 153.898438 145.332031 153.78125 153.257812 C 148.910156 155.121094 144.554688 158.257812 140.390625 161.875 C 139.097656 155.558594 137.800781 149.242188 136.507812 142.921875 Z M 135.335938 137.214844 C 136.292969 136.226562 137.257812 135.25 138.230469 134.304688 C 138.429688 135.515625 138.628906 136.722656 138.824219 137.933594 C 137.890625 138.828125 136.964844 139.746094 136.046875 140.679688 C 135.8125 139.527344 135.574219 138.371094 135.335938 137.214844 Z M 140.3125 132.335938 C 141.300781 131.421875 142.300781 130.539062 143.316406 129.6875 C 143.445312 130.984375 143.574219 132.285156 143.699219 133.585938 C 142.730469 134.382812 141.769531 135.21875 140.820312 136.078125 C 140.648438 134.828125 140.480469 133.582031 140.3125 132.335938 Z M 145.480469 127.933594 C 146.515625 127.132812 147.5625 126.367188 148.632812 125.640625 C 148.6875 127.019531 148.742188 128.402344 148.796875 129.78125 C 147.777344 130.460938 146.769531 131.179688 145.777344 131.933594 C 145.679688 130.601562 145.582031 129.265625 145.480469 127.933594 Z M 150.910156 124.167969 C 152 123.503906 153.109375 122.886719 154.238281 122.320312 C 154.21875 123.769531 154.195312 125.214844 154.175781 126.667969 C 153.09375 127.199219 152.027344 127.777344 150.984375 128.402344 C 150.960938 126.988281 150.9375 125.578125 150.910156 124.167969 Z M 155.382812 155.523438 C 156.167969 155.289062 156.96875 155.089844 157.78125 154.929688 C 157.679688 156.4375 157.574219 157.941406 157.46875 159.445312 C 156.707031 159.578125 155.957031 159.746094 155.214844 159.945312 C 155.273438 158.46875 155.328125 156.996094 155.382812 155.523438 Z M 156.390625 128.476562 C 162.992188 125.785156 170.347656 124.949219 178.898438 127.050781 C 176.75 135.648438 174.601562 144.242188 172.449219 152.835938 C 166.03125 150.898438 160.484375 151.101562 155.488281 152.664062 C 155.789062 144.597656 156.089844 136.535156 156.390625 128.476562 Z M 156.660156 121.191406 C 157.816406 120.699219 159 120.253906 160.203125 119.871094 C 160.097656 121.375 159.992188 122.882812 159.890625 124.386719 C 158.738281 124.742188 157.605469 125.152344 156.496094 125.613281 C 156.550781 124.140625 156.605469 122.664062 156.660156 121.191406 Z M 162.789062 119.152344 C 164.027344 118.855469 165.292969 118.617188 166.582031 118.449219 C 166.390625 119.996094 166.199219 121.542969 166.003906 123.089844 C 164.769531 123.234375 163.558594 123.449219 162.371094 123.722656 C 162.507812 122.199219 162.648438 120.675781 162.789062 119.152344 Z M 169.359375 118.199219 C 170.691406 118.128906 172.050781 118.128906 173.441406 118.203125 C 173.152344 119.773438 172.863281 121.34375 172.574219 122.910156 C 171.242188 122.824219 169.941406 122.8125 168.664062 122.871094 C 168.894531 121.3125 169.128906 119.753906 169.359375 118.199219 Z M 176.433594 118.484375 C 177.867188 118.667969 179.335938 118.9375 180.839844 119.289062 C 180.445312 120.859375 180.050781 122.429688 179.660156 124 C 178.222656 123.652344 176.8125 123.390625 175.441406 123.199219 C 175.773438 121.628906 176.101562 120.058594 176.433594 118.484375 Z M 170.507812 160.601562 C 169.566406 160.292969 168.640625 160.035156 167.734375 159.824219 C 168.066406 158.25 168.398438 156.679688 168.730469 155.105469 C 169.695312 155.316406 170.679688 155.574219 171.6875 155.886719 C 171.292969 157.460938 170.902344 159.03125 170.507812 160.601562 Z M 165.851562 159.449219 C 164.972656 159.300781 164.117188 159.203125 163.273438 159.148438 C 163.507812 157.589844 163.738281 156.035156 163.96875 154.476562 C 164.867188 154.519531 165.78125 154.605469 166.714844 154.742188 C 166.429688 156.308594 166.140625 157.878906 165.851562 159.449219 Z M 161.519531 159.09375 C 160.699219 159.09375 159.898438 159.136719 159.113281 159.21875 C 159.25 157.695312 159.390625 156.171875 159.53125 154.644531 C 160.371094 154.542969 161.222656 154.476562 162.097656 154.457031 C 161.902344 156 161.710938 157.546875 161.519531 159.09375 Z M 153.671875 160.414062 C 152.957031 160.660156 152.25 160.933594 151.554688 161.234375 C 151.527344 159.824219 151.503906 158.414062 151.480469 157.007812 C 152.222656 156.664062 152.976562 156.351562 153.738281 156.070312 C 153.71875 157.519531 153.695312 158.96875 153.671875 160.414062 Z M 150.09375 161.914062 C 149.414062 162.25 148.742188 162.613281 148.078125 163 C 147.980469 161.664062 147.882812 160.332031 147.785156 159 C 148.488281 158.566406 149.203125 158.15625 149.929688 157.773438 C 149.984375 159.152344 150.039062 160.535156 150.09375 161.914062 Z M 146.691406 163.847656 C 146.039062 164.261719 145.394531 164.695312 144.761719 165.144531 C 144.589844 163.898438 144.421875 162.648438 144.25 161.402344 C 144.929688 160.898438 145.613281 160.414062 146.304688 159.949219 C 146.433594 161.246094 146.5625 162.546875 146.691406 163.847656 Z M 140.265625 168.65625 C 139.652344 169.167969 139.046875 169.691406 138.445312 170.222656 C 138.140625 169.164062 137.835938 168.105469 137.539062 167.050781 C 138.179688 166.460938 138.824219 165.882812 139.472656 165.3125 C 139.734375 166.425781 140 167.539062 140.265625 168.65625 Z M 137.171875 171.347656 C 136.566406 171.886719 135.96875 172.429688 135.367188 172.96875 C 135.003906 172.011719 134.636719 171.054688 134.269531 170.097656 C 134.90625 169.5 135.542969 168.898438 136.183594 168.304688 C 136.511719 169.320312 136.839844 170.332031 137.171875 171.347656 Z M 134.101562 174.117188 C 133.503906 174.65625 132.902344 175.199219 132.304688 175.734375 C 131.875 174.882812 131.441406 174.023438 131.011719 173.171875 C 131.648438 172.574219 132.289062 171.972656 132.921875 171.371094 C 133.316406 172.289062 133.710938 173.203125 134.101562 174.117188 Z M 127.914062 179.5 C 127.296875 180 126.675781 180.488281 126.050781 180.960938 C 125.484375 180.300781 124.925781 179.640625 124.363281 178.980469 C 125.027344 178.453125 125.6875 177.910156 126.339844 177.355469 C 126.867188 178.070312 127.386719 178.785156 127.914062 179.5 Z M 124.710938 181.9375 C 124.074219 182.390625 123.433594 182.824219 122.78125 183.238281 C 122.152344 182.664062 121.519531 182.097656 120.890625 181.527344 C 121.582031 181.0625 122.265625 180.574219 122.941406 180.070312 C 123.527344 180.695312 124.121094 181.316406 124.710938 181.9375 Z M 121.390625 184.082031 C 120.730469 184.46875 120.058594 184.832031 119.378906 185.171875 C 118.675781 184.679688 117.96875 184.191406 117.269531 183.699219 C 117.992188 183.316406 118.703125 182.90625 119.410156 182.476562 C 120.070312 183.011719 120.734375 183.546875 121.390625 184.082031 Z M 114.253906 187.140625 C 113.515625 187.339844 112.765625 187.507812 112.003906 187.640625 C 111.136719 187.273438 110.273438 186.910156 109.410156 186.542969 C 110.226562 186.382812 111.023438 186.183594 111.8125 185.949219 C 112.625 186.347656 113.4375 186.742188 114.253906 187.140625 Z M 110.359375 187.867188 C 109.574219 187.945312 108.773438 187.988281 107.957031 187.992188 C 107 187.667969 106.050781 187.34375 105.101562 187.019531 C 105.972656 186.996094 106.824219 186.929688 107.660156 186.828125 C 108.5625 187.171875 109.460938 187.519531 110.359375 187.867188 Z M 106.199219 187.9375 C 105.359375 187.878906 104.5 187.78125 103.621094 187.636719 C 102.574219 187.335938 101.523438 187.035156 100.476562 186.730469 C 101.414062 186.867188 102.328125 186.957031 103.226562 186.996094 C 104.21875 187.308594 105.207031 187.625 106.199219 187.9375 Z M 171.316406 163.769531 C 175.535156 148.273438 179.753906 132.78125 183.976562 117.289062 C 129.65625 101.875 118.574219 192.902344 64.253906 177.488281 C 75.980469 180.476562 87.703125 183.464844 99.433594 186.453125 C 131.5 198.847656 139.25 151.371094 171.316406 163.769531 " fill-opacity="1" fill-rule="nonzero"/></g></g></g><g fill="#ffffff" fill-opacity="1"><g transform="translate(142.976896, 204.662358)"><g><path d="M -5.609375 -18.46875 L 7.671875 -24.3125 C 8.191406 -24.539062 8.597656 -24.644531 8.890625 -24.625 C 9.179688 -24.613281 9.421875 -24.492188 9.609375 -24.265625 C 9.796875 -24.046875 9.976562 -23.726562 10.15625 -23.3125 C 10.34375 -22.894531 10.453125 -22.546875 10.484375 -22.265625 C 10.515625 -21.992188 10.457031 -21.769531 10.3125 -21.59375 C 10.09375 -21.320312 9.710938 -21.066406 9.171875 -20.828125 L 4.609375 -18.828125 L 9.890625 -6.8125 C 10.054688 -6.4375 10.164062 -6.15625 10.21875 -5.96875 C 10.269531 -5.789062 10.285156 -5.554688 10.265625 -5.265625 C 10.253906 -4.984375 10.117188 -4.726562 9.859375 -4.5 C 9.597656 -4.269531 9.21875 -4.046875 8.71875 -3.828125 C 8.226562 -3.609375 7.8125 -3.484375 7.46875 -3.453125 C 7.132812 -3.421875 6.851562 -3.492188 6.625 -3.671875 C 6.40625 -3.847656 6.242188 -4.019531 6.140625 -4.1875 C 6.046875 -4.363281 5.921875 -4.632812 5.765625 -5 L 0.484375 -17 L -4.109375 -14.984375 C -4.617188 -14.765625 -5.019531 -14.660156 -5.3125 -14.671875 C -5.601562 -14.691406 -5.84375 -14.8125 -6.03125 -15.03125 C -6.226562 -15.25 -6.414062 -15.566406 -6.59375 -15.984375 C -6.78125 -16.398438 -6.882812 -16.75 -6.90625 -17.03125 C -6.9375 -17.3125 -6.875 -17.539062 -6.71875 -17.71875 C -6.507812 -17.988281 -6.140625 -18.238281 -5.609375 -18.46875 Z M -5.609375 -18.46875 "/></g></g></g><g fill="#ffffff" fill-opacity="1"><g transform="translate(160.81055, 196.826816)"><g><path d="M 3.921875 -21.140625 L 16.234375 -10.65625 C 16.734375 -10.21875 17.046875 -9.863281 17.171875 -9.59375 C 17.421875 -9.019531 17.179688 -8.300781 16.453125 -7.4375 C 16.046875 -6.914062 15.6875 -6.585938 15.375 -6.453125 C 15.0625 -6.316406 14.773438 -6.273438 14.515625 -6.328125 C 14.253906 -6.390625 14.039062 -6.484375 13.875 -6.609375 C 13.71875 -6.734375 13.488281 -6.914062 13.1875 -7.15625 L 10.8125 -9.203125 L 4.203125 -6.296875 L 4.09375 -3.15625 C 4.0625 -2.769531 4.035156 -2.488281 4.015625 -2.3125 C 3.992188 -2.132812 3.914062 -1.921875 3.78125 -1.671875 C 3.644531 -1.429688 3.421875 -1.242188 3.109375 -1.109375 C 2.804688 -0.972656 2.328125 -0.921875 1.671875 -0.953125 C 0.546875 -0.992188 -0.140625 -1.300781 -0.390625 -1.875 C -0.515625 -2.144531 -0.5625 -2.613281 -0.53125 -3.28125 L 0.046875 -19.484375 C 0.0664062 -19.910156 0.203125 -20.316406 0.453125 -20.703125 C 0.710938 -21.097656 1.046875 -21.378906 1.453125 -21.546875 C 2.304688 -21.929688 3.128906 -21.796875 3.921875 -21.140625 Z M 4.5 -14.5625 L 4.359375 -10.578125 L 7.546875 -11.984375 Z M 4.5 -14.5625 "/></g></g></g><g fill="#ffffff" fill-opacity="1"><g transform="translate(179.456992, 188.63416)"><g><path d="M 3.640625 -5.8125 L 10.140625 -8.671875 C 10.660156 -8.898438 11.066406 -9.003906 11.359375 -8.984375 C 11.648438 -8.972656 11.890625 -8.859375 12.078125 -8.640625 C 12.273438 -8.429688 12.46875 -8.113281 12.65625 -7.6875 C 12.84375 -7.257812 12.945312 -6.898438 12.96875 -6.609375 C 13 -6.328125 12.941406 -6.097656 12.796875 -5.921875 C 12.566406 -5.617188 12.1875 -5.351562 11.65625 -5.125 L 3.0625 -1.34375 C 1.945312 -0.851562 1.160156 -0.867188 0.703125 -1.390625 C 0.492188 -1.597656 0.265625 -1.984375 0.015625 -2.546875 L -5.828125 -15.84375 C -5.984375 -16.207031 -6.085938 -16.484375 -6.140625 -16.671875 C -6.203125 -16.867188 -6.222656 -17.113281 -6.203125 -17.40625 C -6.160156 -17.945312 -5.628906 -18.441406 -4.609375 -18.890625 C -3.492188 -19.378906 -2.707031 -19.367188 -2.25 -18.859375 C -2.050781 -18.628906 -1.828125 -18.234375 -1.578125 -17.671875 Z M 3.640625 -5.8125 "/></g></g></g><g fill="#ffffff" fill-opacity="1"><g transform="translate(193.848232, 182.311106)"><g><path d="M 4.609375 -12.515625 C 8.066406 -11.242188 10.5625 -10.242188 12.09375 -9.515625 C 12.882812 -9.148438 13.367188 -8.765625 13.546875 -8.359375 C 13.722656 -7.960938 13.613281 -7.34375 13.21875 -6.5 C 12.832031 -5.664062 12.429688 -5.160156 12.015625 -4.984375 C 11.609375 -4.804688 10.972656 -4.929688 10.109375 -5.359375 L 2.21875 -9.046875 L 4.265625 -4.390625 C 4.429688 -4.003906 4.539062 -3.71875 4.59375 -3.53125 C 4.65625 -3.34375 4.671875 -3.097656 4.640625 -2.796875 C 4.609375 -2.273438 4.082031 -1.789062 3.0625 -1.34375 C 1.945312 -0.851562 1.160156 -0.867188 0.703125 -1.390625 C 0.492188 -1.597656 0.265625 -1.984375 0.015625 -2.546875 L -5.828125 -15.84375 C -5.984375 -16.207031 -6.085938 -16.484375 -6.140625 -16.671875 C -6.203125 -16.867188 -6.222656 -17.113281 -6.203125 -17.40625 C -6.160156 -17.945312 -5.628906 -18.441406 -4.609375 -18.890625 C -3.492188 -19.378906 -2.707031 -19.367188 -2.25 -18.859375 C -2.050781 -18.628906 -1.828125 -18.234375 -1.578125 -17.671875 L 0.421875 -13.109375 C 1.523438 -16.492188 2.398438 -19.265625 3.046875 -21.421875 C 3.316406 -22.316406 3.660156 -22.851562 4.078125 -23.03125 C 4.492188 -23.21875 5.140625 -23.175781 6.015625 -22.90625 C 6.890625 -22.644531 7.414062 -22.304688 7.59375 -21.890625 C 7.78125 -21.484375 7.753906 -20.898438 7.515625 -20.140625 C 7.054688 -18.660156 6.265625 -16.5625 5.140625 -13.84375 Z M 4.609375 -12.515625 "/></g></g></g><g fill="#ffffff" fill-opacity="1"><g transform="translate(209.482567, 175.441875)"><g><path d="M -5.828125 -15.84375 C -5.984375 -16.207031 -6.085938 -16.484375 -6.140625 -16.671875 C -6.203125 -16.867188 -6.222656 -17.113281 -6.203125 -17.40625 C -6.160156 -17.945312 -5.628906 -18.441406 -4.609375 -18.890625 C -3.492188 -19.378906 -2.707031 -19.367188 -2.25 -18.859375 C -2.050781 -18.628906 -1.828125 -18.234375 -1.578125 -17.671875 L 4.265625 -4.390625 C 4.429688 -4.003906 4.539062 -3.71875 4.59375 -3.53125 C 4.65625 -3.34375 4.671875 -3.097656 4.640625 -2.796875 C 4.609375 -2.273438 4.082031 -1.789062 3.0625 -1.34375 C 1.945312 -0.851562 1.160156 -0.867188 0.703125 -1.390625 C 0.492188 -1.597656 0.265625 -1.984375 0.015625 -2.546875 Z M -5.828125 -15.84375 "/></g></g></g><g fill="#ffffff" fill-opacity="1"><g transform="translate(215.98495, 172.584934)"><g><path d="M 4.890625 -22.1875 C 4.921875 -22.53125 5.066406 -22.816406 5.328125 -23.046875 C 5.585938 -23.273438 5.945312 -23.488281 6.40625 -23.6875 C 6.863281 -23.894531 7.25 -24.015625 7.5625 -24.046875 C 7.875 -24.085938 8.117188 -24.082031 8.296875 -24.03125 C 8.484375 -23.988281 8.65625 -23.867188 8.8125 -23.671875 C 9.019531 -23.453125 9.25 -23.0625 9.5 -22.5 L 15.328125 -9.25 C 15.492188 -8.863281 15.601562 -8.578125 15.65625 -8.390625 C 15.707031 -8.203125 15.726562 -7.960938 15.71875 -7.671875 C 15.6875 -7.140625 15.160156 -6.648438 14.140625 -6.203125 C 13.503906 -5.929688 13.046875 -5.789062 12.765625 -5.78125 C 12.484375 -5.769531 12.222656 -5.832031 11.984375 -5.96875 C 6.296875 -9.175781 2.566406 -11.265625 0.796875 -12.234375 L 4.25 -4.375 C 4.414062 -3.988281 4.523438 -3.703125 4.578125 -3.515625 C 4.628906 -3.328125 4.644531 -3.085938 4.625 -2.796875 C 4.582031 -2.265625 4.050781 -1.773438 3.03125 -1.328125 C 2.050781 -0.898438 1.351562 -0.847656 0.9375 -1.171875 C 0.707031 -1.359375 0.535156 -1.539062 0.421875 -1.71875 C 0.316406 -1.90625 0.179688 -2.179688 0.015625 -2.546875 L -5.84375 -15.890625 C -6.113281 -16.492188 -6.226562 -16.96875 -6.1875 -17.3125 C -6.15625 -17.65625 -6.007812 -17.941406 -5.75 -18.171875 C -5.5 -18.398438 -5.132812 -18.617188 -4.65625 -18.828125 C -4.175781 -19.035156 -3.773438 -19.15625 -3.453125 -19.1875 C -3.140625 -19.226562 -2.898438 -19.21875 -2.734375 -19.15625 C -2.660156 -19.132812 -2.390625 -19.007812 -1.921875 -18.78125 C 3.453125 -15.675781 7.023438 -13.640625 8.796875 -12.671875 L 5.25 -20.765625 C 4.976562 -21.367188 4.859375 -21.84375 4.890625 -22.1875 Z M 4.890625 -22.1875 "/></g></g></g><g fill="#ffffff" fill-opacity="1"><g transform="translate(233.555637, 164.864931)"><g><path d="M 5.4375 -15.015625 L 9.65625 -16.859375 C 10.519531 -17.191406 11.144531 -17.195312 11.53125 -16.875 C 11.820312 -16.632812 12.09375 -16.21875 12.34375 -15.625 L 14.65625 -10.375 C 14.882812 -9.863281 14.875 -9.28125 14.625 -8.625 C 13.90625 -6.644531 12.203125 -5.066406 9.515625 -3.890625 C 7.140625 -2.847656 4.679688 -2.835938 2.140625 -3.859375 C -0.390625 -4.890625 -2.210938 -6.671875 -3.328125 -9.203125 C -4.441406 -11.742188 -4.476562 -14.253906 -3.4375 -16.734375 C -2.40625 -19.210938 -0.679688 -20.988281 1.734375 -22.0625 C 3.617188 -22.882812 5.675781 -23.039062 7.90625 -22.53125 C 8.46875 -22.40625 8.832031 -22.144531 9 -21.75 C 9.175781 -21.351562 9.191406 -20.816406 9.046875 -20.140625 C 8.796875 -19.023438 8.414062 -18.351562 7.90625 -18.125 C 7.601562 -18 7.019531 -18.007812 6.15625 -18.15625 C 5.300781 -18.300781 4.410156 -18.171875 3.484375 -17.765625 C 2.273438 -17.234375 1.382812 -16.332031 0.8125 -15.0625 C 0.25 -13.800781 0.269531 -12.476562 0.875 -11.09375 C 1.488281 -9.71875 2.484375 -8.753906 3.859375 -8.203125 C 5.242188 -7.660156 6.539062 -7.65625 7.75 -8.1875 C 8.625 -8.582031 9.347656 -9.078125 9.921875 -9.671875 L 8.78125 -12.265625 L 6.890625 -11.4375 C 6.398438 -11.21875 6.019531 -11.128906 5.75 -11.171875 C 5.488281 -11.210938 5.269531 -11.335938 5.09375 -11.546875 C 4.925781 -11.765625 4.75 -12.082031 4.5625 -12.5 C 4.382812 -12.925781 4.273438 -13.285156 4.234375 -13.578125 C 4.191406 -13.867188 4.242188 -14.101562 4.390625 -14.28125 C 4.617188 -14.550781 4.96875 -14.796875 5.4375 -15.015625 Z M 5.4375 -15.015625 "/></g></g></g><g fill="#ffffff" fill-opacity="1"><g transform="translate(165.503598, 219.58149)"><g><path d="M 12.171875 -25.453125 C 12.398438 -25.273438 12.566406 -25.09375 12.671875 -24.90625 C 12.785156 -24.726562 12.925781 -24.453125 13.09375 -24.078125 L 18.921875 -10.828125 C 19.398438 -9.722656 19.375 -8.941406 18.84375 -8.484375 C 18.59375 -8.265625 18.234375 -8.050781 17.765625 -7.84375 C 17.304688 -7.644531 16.925781 -7.519531 16.625 -7.46875 C 16.320312 -7.425781 16.070312 -7.429688 15.875 -7.484375 C 15.675781 -7.535156 15.5 -7.644531 15.34375 -7.8125 C 15.132812 -8.050781 14.910156 -8.445312 14.671875 -9 L 11.140625 -17.015625 C 10.953125 -16.335938 10.710938 -15.296875 10.421875 -13.890625 C 10.140625 -12.484375 9.957031 -11.597656 9.875 -11.234375 C 9.789062 -10.867188 9.726562 -10.613281 9.6875 -10.46875 C 9.65625 -10.332031 9.519531 -10.101562 9.28125 -9.78125 C 9.050781 -9.46875 8.753906 -9.234375 8.390625 -9.078125 C 8.035156 -8.921875 7.675781 -8.859375 7.3125 -8.890625 C 6.945312 -8.929688 6.660156 -9.007812 6.453125 -9.125 L 6.15625 -9.28125 C 5.65625 -9.550781 4.648438 -10.125 3.140625 -11 C 1.628906 -11.882812 0.816406 -12.359375 0.703125 -12.421875 L 4.25 -4.375 C 4.40625 -4.007812 4.507812 -3.726562 4.5625 -3.53125 C 4.625 -3.332031 4.640625 -3.097656 4.609375 -2.828125 C 4.546875 -2.296875 4.015625 -1.804688 3.015625 -1.359375 C 2.046875 -0.929688 1.347656 -0.878906 0.921875 -1.203125 C 0.703125 -1.367188 0.535156 -1.539062 0.421875 -1.71875 C 0.316406 -1.90625 0.179688 -2.1875 0.015625 -2.5625 L -5.828125 -15.84375 C -5.984375 -16.207031 -6.085938 -16.484375 -6.140625 -16.671875 C -6.203125 -16.867188 -6.222656 -17.113281 -6.203125 -17.40625 C -6.140625 -17.925781 -5.601562 -18.410156 -4.59375 -18.859375 C -4.164062 -19.046875 -3.773438 -19.15625 -3.421875 -19.1875 C -3.066406 -19.21875 -2.816406 -19.195312 -2.671875 -19.125 L -2.46875 -19.046875 L 6.09375 -14.3125 C 7.21875 -19.09375 7.988281 -22.25 8.40625 -23.78125 C 8.476562 -24.34375 9.019531 -24.84375 10.03125 -25.28125 C 11.039062 -25.726562 11.753906 -25.785156 12.171875 -25.453125 Z M 12.171875 -25.453125 "/></g></g></g><g fill="#ffffff" fill-opacity="1"><g transform="translate(186.660131, 210.285981)"><g><path d="M 1.390625 -21.765625 C 3.742188 -22.804688 6.160156 -22.851562 8.640625 -21.90625 C 11.128906 -20.957031 12.925781 -19.222656 14.03125 -16.703125 C 15.144531 -14.179688 15.265625 -11.664062 14.390625 -9.15625 C 13.515625 -6.65625 11.863281 -4.875 9.4375 -3.8125 C 7.019531 -2.75 4.578125 -2.722656 2.109375 -3.734375 C -0.359375 -4.742188 -2.125 -6.457031 -3.1875 -8.875 C -3.769531 -10.1875 -4.070312 -11.523438 -4.09375 -12.890625 C -4.125 -14.265625 -3.910156 -15.515625 -3.453125 -16.640625 C -3.003906 -17.765625 -2.359375 -18.78125 -1.515625 -19.6875 C -0.679688 -20.59375 0.285156 -21.285156 1.390625 -21.765625 Z M 1 -10.84375 C 1.625 -9.425781 2.585938 -8.476562 3.890625 -8 C 5.191406 -7.519531 6.40625 -7.53125 7.53125 -8.03125 C 8.664062 -8.53125 9.5 -9.40625 10.03125 -10.65625 C 10.5625 -11.90625 10.503906 -13.253906 9.859375 -14.703125 C 9.222656 -16.160156 8.253906 -17.125 6.953125 -17.59375 C 5.648438 -18.070312 4.429688 -18.0625 3.296875 -17.5625 C 2.171875 -17.0625 1.347656 -16.171875 0.828125 -14.890625 C 0.316406 -13.617188 0.375 -12.269531 1 -10.84375 Z M 1 -10.84375 "/></g></g></g><g fill="#ffffff" fill-opacity="1"><g transform="translate(205.545631, 201.988291)"><g><path d="M 9.375 -24.703125 C 10.507812 -24.648438 11.203125 -24.347656 11.453125 -23.796875 C 11.554688 -23.535156 11.601562 -23.097656 11.59375 -22.484375 L 10.875 -6.21875 C 10.851562 -5.78125 10.707031 -5.375 10.4375 -5 C 10.175781 -4.632812 9.851562 -4.367188 9.46875 -4.203125 L 9.234375 -4.09375 C 8.835938 -3.914062 8.410156 -3.851562 7.953125 -3.90625 C 7.503906 -3.96875 7.113281 -4.140625 6.78125 -4.421875 L -5.6875 -14.890625 C -6.15625 -15.296875 -6.441406 -15.628906 -6.546875 -15.890625 C -6.796875 -16.441406 -6.546875 -17.15625 -5.796875 -18.03125 C -5.398438 -18.539062 -5.0625 -18.851562 -4.78125 -18.96875 C -4.507812 -19.09375 -4.289062 -19.15625 -4.125 -19.15625 C -3.957031 -19.15625 -3.769531 -19.101562 -3.5625 -19 C -3.332031 -18.875 -3.101562 -18.71875 -2.875 -18.53125 C -2.65625 -18.351562 -2.0625 -17.828125 -1.09375 -16.953125 C -0.125 -16.078125 0.910156 -15.148438 2.015625 -14.171875 C 3.128906 -13.191406 4.175781 -12.265625 5.15625 -11.390625 C 6.132812 -10.523438 6.6875 -10.046875 6.8125 -9.953125 L 6.96875 -22.53125 C 6.976562 -22.875 6.988281 -23.15625 7 -23.375 C 7.101562 -23.945312 7.363281 -24.320312 7.78125 -24.5 C 8.195312 -24.6875 8.726562 -24.753906 9.375 -24.703125 Z M 9.375 -24.703125 "/></g></g></g><g fill="#ffffff" fill-opacity="1"><g transform="translate(224.622374, 193.606574)"><g><path d="M -5.828125 -15.84375 C -5.984375 -16.207031 -6.085938 -16.484375 -6.140625 -16.671875 C -6.203125 -16.867188 -6.222656 -17.113281 -6.203125 -17.40625 C -6.160156 -17.945312 -5.628906 -18.441406 -4.609375 -18.890625 C -3.492188 -19.378906 -2.707031 -19.367188 -2.25 -18.859375 C -2.050781 -18.628906 -1.828125 -18.234375 -1.578125 -17.671875 L 4.265625 -4.390625 C 4.429688 -4.003906 4.539062 -3.71875 4.59375 -3.53125 C 4.65625 -3.34375 4.671875 -3.097656 4.640625 -2.796875 C 4.609375 -2.273438 4.082031 -1.789062 3.0625 -1.34375 C 1.945312 -0.851562 1.160156 -0.867188 0.703125 -1.390625 C 0.492188 -1.597656 0.265625 -1.984375 0.015625 -2.546875 Z M -5.828125 -15.84375 "/></g></g></g><g fill="#ffffff" fill-opacity="1"><g transform="translate(231.124757, 190.749634)"><g><path d="M 3.328125 -6.515625 L 10.6875 -9.75 C 11.0625 -9.90625 11.34375 -10.007812 11.53125 -10.0625 C 11.71875 -10.125 11.960938 -10.144531 12.265625 -10.125 C 12.796875 -10.09375 13.285156 -9.566406 13.734375 -8.546875 C 14.222656 -7.421875 14.210938 -6.632812 13.703125 -6.1875 C 13.472656 -5.976562 13.082031 -5.75 12.53125 -5.5 L 3.0625 -1.34375 C 1.945312 -0.851562 1.160156 -0.867188 0.703125 -1.390625 C 0.492188 -1.597656 0.265625 -1.984375 0.015625 -2.546875 L -5.828125 -15.84375 C -6.179688 -16.65625 -6.269531 -17.273438 -6.09375 -17.703125 C -5.925781 -18.128906 -5.414062 -18.53125 -4.5625 -18.90625 L 4.84375 -23.046875 C 5.21875 -23.203125 5.5 -23.304688 5.6875 -23.359375 C 5.875 -23.421875 6.117188 -23.4375 6.421875 -23.40625 C 6.953125 -23.375 7.441406 -22.847656 7.890625 -21.828125 C 8.378906 -20.710938 8.367188 -19.929688 7.859375 -19.484375 C 7.628906 -19.273438 7.238281 -19.046875 6.6875 -18.796875 L -0.65625 -15.578125 L 0.40625 -13.15625 L 5.125 -15.234375 C 5.5 -15.390625 5.78125 -15.492188 5.96875 -15.546875 C 6.164062 -15.609375 6.414062 -15.628906 6.71875 -15.609375 C 7.25 -15.578125 7.738281 -15.050781 8.1875 -14.03125 C 8.675781 -12.914062 8.65625 -12.132812 8.125 -11.6875 C 7.90625 -11.46875 7.515625 -11.238281 6.953125 -11 L 2.265625 -8.9375 Z M 3.328125 -6.515625 "/></g></g></g></svg>